<?xml version="1.0" encoding="utf-8"?>
<!-- Generator: Adobe Illustrator 18.1.1, SVG Export Plug-In . SVG Version: 6.00 Build 0)  -->
<svg version="1.1" id="Layer_1" xmlns="http://www.w3.org/2000/svg" xmlns:xlink="http://www.w3.org/1999/xlink" x="0px" y="0px"
	 viewBox="-177 56 256 682" enable-background="new -177 56 256 682" xml:space="preserve">
<title>peep-standing-15</title>
<desc>Created with Sketch.</desc>
<g id="Introduction">
	<g id="variations-standing" transform="translate(-1668.000000, -1713.000000)">
		<g id="a-person_x2F_standing" transform="translate(1677.000000, 1658.000000)">
			<g id="pose_x2F_standing_x2F_easing-1" transform="translate(-28.736217, 150.264357)">
				<path id="_xD83C__xDFA8_-Background" fill="#FFFFFF" d="M93,294.3c6.3,0.1,3.6-58.2-0.6-69c-0.6-2.2-1.1-5.2-1-7.8
					c5.2,0.5,4.6-3,4.3-7.3c0.1-3.4,0.3-10.4-4.9-7.7C75.4,171.5,92.2,91.1,51.3,83.5c-4.9-1.2-10-2.4-14.2-5.9
					c-4.4-8.1-6.6-9.2-13.9-9.7c-1.3-7.3-3.9-15.1-11.4-18C5,47.4-3,47.1-10.2,48.6c-5.9,1.9-6.5,13-7.8,18.4
					c-8-2.1-17.8-6.6-22.1,3.5c-2.1-0.6-4-0.2-6.1,0.5C-64,73.8-81.2,81.9-87.8,98.6c-4.1,10-1.2,21,0.3,31.4
					c1.4,11.3-2.3,21.8-4.1,32.7c-2.6,15-3.1,27-1.4,38.2c-4.5,1-4.8,5.1-3,9.3c0.5,1.4,1.1,3,2.2,3.8c2.4,1.5,5.5-0.2,8.1-0.5
					c0.5,6,1.6,11.9,3.3,18.6c-0.5,2-1.1,4.2-1.6,6.2l-0.2-0.2c-5.9,24.8-23.5,48.9-18,75.2c0.3,0.9,0.9,0.7,1.4,0.7
					c2.7,1,5.2,0.4,7.9,0.5c6.5,0,12.8,0.8,18.6,1.6c1.1,6.9,4.5,18.3,10.7,21c0.1,0,1.9-0.3,2.1-0.4
					c-16.4,66.6-46,128.1-57.7,196.1c-0.1,0.8,1.3,0.4,1.7,0.5c-0.1,1.9,1.2,2.3,2.9,3c-2.2,4.6-4.2,9.2-6.4,13.8
					c-1,2.3-2.7,4.5-3,7c-2.4,1.5-4.1,4.6-4,7.4c-6.5,2.8-4.8,16.4-6.2,23.1c-1.5,10.1-8.7,17.1-13.6,25.3c-1,1.7-2.1,3.8-2.1,5.9
					c-3,1.4-4.2,4.5-4,9.8c0,6.1,1.7,8.5,6.4,8.6c12.7,1.3,27.5,0.8,40.3-0.7c9.5-1.2,18-0.2,15.9-11.7c-0.4-2.8,0.4-6.5-1.2-8.8
					c-1-6.7-0.4-13.4,1.8-20c1.3-5.6,3.6-17.1,2.6-24.5c-0.4-3.5-7.5-5.4-8.7-5.5c0.4-2.6,0.2-7.1-1.2-9c2.6-0.4,3.2-1,3.8-3.9
					c1.3-4.6,1.4-9.6,4.6-13.5c5.7,0.1,11.4-1.4,17.1-1.5l0.3-0.7c3.4,0,6.7-0.6,9.9-1.8c0.7,0.3,1.6,0.6,2-0.4l1.9-5.9
					c22.1-70.4,46.7-141,70.6-210.9c1.4-3.4,3.1-7,5.3-10c0.7,42.8,9.7,85.5,10.5,128.3c1,29.4,0.8,58.5,3.5,88
					c0.7,6.2,1.5,6,2.4,5.7c0.4,0.1,1.3,0.2,1.6,0.3c-0.6,6.2-1.3,16.3-4,22.6c-5.9,0.9-4.8,5.4-3.5,9.2c-1.4,1.2-1.2,4-0.8,5.5
					c-5.5,0-6.7,4.5-6.4,7.4c0.5,4.8,0.2,12.1,3.4,16.2c1.9,5.2,4.9,10.1,6.1,15.6c0.7,4.1,0.5,10.1,1.2,14.1
					c-1.8,0.8-1,2.1-1.3,4.7c-1.6,11.6,3.9,9.6,13.7,10.4c5.8,1.3,50.4,3.9,48.4-3.9c0.3-3.1-1.1-4.5-1.8-7.6
					c-0.3-0.8-5.8-10.3-9.1-13.9c-11.1-10.4-10.6-24.4-10.3-40.5c-0.7-4.4-4-8.6-8.3-8.1c1.2-4.7-1.1-8.7-5.8-10.1
					c0.5-5.3,1-12.5,2.7-17l-1.6-1.7l2.2,0.3l0.7-1.8l0.8,2c3.8,0,8-0.8,11.6-1.2c0.6,0,0.3-0.8,0.4-1.1c3.4-0.7,3.8-2.5,3.2-6.8
					c0.8-70.2,0.5-139.7-0.6-210.1c5.3,0.2,10.5-1.7,15.8-3c1.9,1.2,2.4-3,2.2-3.9C94.1,303.1,93.5,298.6,93,294.3z"/>
				<path id="_xD83D__xDD8D_-Ink" fill="#E91B35" d="M-16.6,57.2c0.8,0.6,0.7,2.4,0.8,3.3l0,0.1c0.2,2.9-0.1,5.9-0.8,8.7l-0.1,0.4
					c-0.3,1.4-0.7,3-1.8,3.9c-1.2,1.1-3.1,0.4-3.2-1.3c0-0.8,0.2-1.6,0.6-2.3c-2.4,0.9-4.7,1.8-7.1,2.7c-1.5,12.5,15.9,27.8,26,33.1
					c14.7,8.1,27.1-4.3,29-19c0.3-1.9,0.5-3.9,0.6-5.9l0-0.2c0-1.6-0.3-3.8,0.8-5.2c-0.8,0-1.5,0.1-2.2,0.2l0,0.1
					c0.4,0.8,1,2.7-0.3,2.9c-3-0.3-4.4-5.5-5.1-8l0-0.1c-0.5-1.9-1.1-8.7,0.3-9.5c0.4,1.7,0.3,3.5,0.8,5.2c1.2,0.5,3.5,0.6,4,0.7
					c6.2,0.1,9.7,4.5,12.2,9.7c7.3,6,17.9,5,25.8,9.9c24.2,17.6,16.3,85.9,28.4,115c2.4-1,4.9,1,5.2,3.4c0.3,1.9,0.2,3.9,0.3,5.8
					l0,0.2c0.2,3.9,0.9,8.3-4.4,8.4c0,2.2,0.4,4.3,0.9,6.4c2.9,12.7,4.2,25.8,4.5,38.8l0,1c0.1,6.8,0.2,28-3.8,30.5l0.2,1.5
					c0.5,3.7,0.9,7.5,1.1,11.2c0.4,1.9-0.9,6.6-3.5,5.4c-4.8,1.2-9.5,2.9-14.5,3c1.2,40.3,0.6,80.6,0.8,120.8
					c-0.4,29.7,1.2,59.6-0.2,89.2l0.1,0.4c0.4,3.3,0.5,6.2-3.3,7.3c-0.1,0.8-0.7,1.2-1.4,1.3c-2.1,0.3-4.2,0.6-6.3,0.8
					c-2,0.1-4.1,0.6-6,0.4c0.2,0.2-0.3,0.2-0.4,0.1c-1.8,4.5-2.3,9.3-2.7,14.1c4.3,1.6,6.7,5.4,6,10c4.4,0.2,7.6,5,8.2,9.1
					c0.4,2.8,0.1,5.6,0,8.4c-0.6,9.7,0.8,20.1,7.1,27.8c4,4.8,9.3,9.2,11.1,15.5c0.5,0.2,0.9,0.7,1,1.3l1.1,4.4l0,0l0.6,2.2
					c0.4,1.6,0.8,3.2,0.6,4.9l0,0.2c-1.1,10.5-44.2,5.4-52.6,4.7c-3.4-0.5-7.1-0.2-10.1-2c-3.7-2.5-4.2-7.5-3.6-11.6l0.1-0.4
					c0.3-1.8,0.6-3.8,2.4-4.8c-0.6-3.8-0.4-7.7-1.1-11.5c-1.1-5.3-4.2-10-5.9-15.1c-2.4-2.6-2.4-6.7-2.9-10.1
					c-0.4-3.3-0.7-6.6-0.8-9.8c-0.3-4.3,1.5-7.9,6.1-8.5c-0.2-0.8,0.4-1.5,0.9-2.1c-1.4-4.8-1.7-11.5,4.2-13.1
					c2.2-5.5,2.9-11.6,3.5-17.5c-0.1,0-0.1,0-0.2,0c-2.7,1.1-3.4-3.7-3.7-6.2l-0.1-0.6c-2.8-29.4-2.5-59-3.6-88.6l-0.1-2.1
					c-0.9-19.5-1.5-39.1-4.8-58.3c-3.4-21.4-4.3-43.1-5.4-64.8c-1.4,2.1-2.1,4.6-3.2,6.8c-14.3,42.1-29,84-43.2,126.1
					c-10.3,30.5-20.1,61.1-29.9,91.8c-0.5,1.6-2.1,1.9-3.2,1.4c-2.9,1-6,1.6-9.1,1.7c-0.2,0.4-0.6,0.7-1.1,0.7
					c-1.7-0.2-3.6,0.3-5.2,0.5c-3.8,0.4-7.5,1-11.3,1c-2.4,3-2.5,7.1-3.6,10.7c-0.6,1.8-0.5,5.9-2.7,6.4c0.8,1.2,0.9,2.6,0.8,4.1
					c0.7,0.2,1.4,0.4,2,0.7c0.6,0.3,1.4,0.3,1.9,0.9c12.2,2.2,3.3,25.3,1.2,33c-2.1,6.3-2.7,12.8-1.8,19.3c1.4,2,1,5,1.2,7.4
					c0.1,2.1,0.3,4.3,0.3,6.4c-0.2,8.8-11.1,7.4-17.2,8.5c-3.8,0.4-7.7,0.8-11.5,1c-9.8,0.6-19.6,0.7-29.3-0.3
					c-6.3-0.2-7.6-4.3-7.6-9.9l0-0.2c-0.1-3.8,0.5-8.4,4.1-10.4c0.2-2,1.2-4,2.2-5.8c4.8-8.1,12.1-15.3,13.5-25.1
					c1.4-6.4-0.2-20.5,6.3-23.8c0.2-2.9,1.9-5.8,4.1-7.4c0.4-2.4,2-4.6,3-6.8c2-4.2,3.9-8.5,5.9-12.7c-1-0.4-2.2-1.3-2.3-2.4
					c-1,0-2-0.6-1.9-1.9c0.4-3.6,1.1-7,1.9-10.5l0.1-0.4c13.1-63.1,40-122.1,55.8-184.5c-2.1,0.4-4.1-2-5.3-3.6
					c-3.8-5.1-6-11.3-7-17.5l-1.8-0.2c-5.9-0.7-11.9-1.4-17.9-1.2l-1.4,0c-1.6,0-3.2,0-4.7-0.5c-1.1,0.1-2.2-0.5-2.4-1.7
					c-4.4-22.1,6.5-43.1,14.3-63.1c1.8-4.9,3.2-9.9,4.4-15c0-0.2,0.3-0.1,0.3,0c-0.2,5.7-1.6,11.4-3.1,16.8
					c-4.7,18.5-14.4,36.6-12,56.2c7.4-5.8,16.2-9.9,25.4-11.6c0.5-2.3,1.1-4.6,1.6-6.9c-0.4-3.6-0.7-7.2-1.1-10.8
					c-1.1-10.8-2.9-21.5-5.2-32.1c-3.6-10.6-6.7-21.4-7.8-32.7l-0.2,0c-2.5,0.5-5.2,1.6-7.5,0c-1.5-1-2.1-2.7-2.7-4.3
					c-1.7-3.9-2-9.1,2.8-10.7c-1.8-12.4-0.6-25.4,1.5-37.8c1.7-10.8,5.5-21.5,4.1-32.5c-1.6-10.6-4.5-21.8-0.3-32.2
					c7-17.4,24.6-25.6,41.9-28.3l0.3-0.1c2.1-0.6,4.1-1.3,6.3-0.8c5.3-9.8,13.8-5.8,22.2-3.6c0.6-1.7,1-3.4,1.5-5.1
					C-17.5,59.5-17.5,57.5-16.6,57.2z M31.7,626.2l0,0.4c-0.2,4.6,0,8.5,5.7,8.5c3.9,0.4,7.8,0.8,11.7,1.2l1.5,0.1
					c11.6,1,23.4,1.5,35,0l0.5-0.1c1-0.1,2.8-0.1,3.5-0.8c0.9-1.2-0.1-3.6-0.4-5.1c-18.1-0.2-36.2-0.9-54.3-0.6
					c-1.9,0-2.8-1.6-2.6-3.1C32.1,626.5,31.9,626.3,31.7,626.2z M-152,623.9c-0.9,3.1-0.7,6.1-0.2,9.2c0.3,3.3,1.8,3.5,4.6,3.6
					c11,1,22.1,0.8,33.2,0c5.9-0.6,12-0.6,17.8-1.9c2.8-1.2,1.2-5.1,1.3-7.4c-13,8.4-32.7,7.3-46.9,2.5l-0.2-0.1
					C-145.8,628.2-150.1,627.3-152,623.9z M-130.4,567.4c-1.5,1.7-1.5,6.5-1.6,8.1l0,0.2c-0.2,3.4-0.1,6.9-0.3,10.3
					c0.1,14.5-8.3,21.7-14.5,33.4c-1.7,2.8,0.8,3.2,2.8,4.1c13,6.1,28.4,7,42,2.3c6.8-2,5.3-6.6,4.8-12.2c-0.6-11.5,5.5-21.9,7.3-33
					l0-0.3c0.5-3.3,1.5-11.6-3.7-9.8c-1.1,0.7-2.2-0.2-2.3-1.2c-0.1,0-0.3,0-0.4,0c-0.6,3.7-1.2,7.4-1.8,11.1c0.5,0.3,1,0.7,1.4,1.1
					c0.5,0.5,0.2,1.6-0.6,1.5c-0.4,0-0.8-0.1-1.2-0.2c-0.3,3.2-5.4,1.4-4-1.2c-7.4-2.5-15.5-2.3-23-0.4l0,0
					c-0.6,0.2-4.8,1.1-3.4,1.7c0.6,0.1-0.7,0.8-0.9-0.3c-0.1-1.4,3.2-2.1,4.2-2.7C-128.2,576.4-129.9,571.8-130.4,567.4z M58.7,556
					c-7-3.8-15.5-2.4-23-1.7l-0.3,0c-1.9,0.2-4.6,0.3-5.5,2.3c-1.3,3.2,0.8,10.2,1.5,13.8l0.2,0.9c0.6,2.3,1.1,4.5,1.3,6.8
					c0,0.1-0.1,0.1-0.1,0.1c-2.6-2.8-3.8-6.6-5.1-10.2c-0.5,0.3-1,0.6-1.5,1c-1.9,6.5-2.5,13.4-1,20.1l0.1,0.2
					c1.9,8.2,7.6,14.9,8.2,23.5c0.4,3.5,0.3,7,1.3,10.4c0.6,0.1,1.1,0.5,1.3,1.1l3.2,0c15.7,0,31.4,0.2,47.1,0.8
					c-0.5-4.4-4.4-8.3-7.1-11.4c-8.4-8.6-12.1-21-10.7-32.9c0.7-6,4.1-15.4-4.1-17.6c-0.6,4.9-1.4,9.7-1.8,14.6
					c1.5,0.7,1.4,2.7-0.4,2.7c-0.8,2.8-3.7,1.7-3.4-1c-10.3-3.8-16.3-5.1-26.4,0.7c-0.3,0,0.8-1.2,0.9-1.4c3.2-3.4,8.1-5,12.7-5.1
					c4.6,0,8.8,1.7,13.1,3c0.6-4.6,1.1-9.3,1.6-13.9l0.1-1C61,559.4,60.9,557.4,58.7,556z M-107.6,615.6c1.5-0.3,2.9-0.8,4.4-0.5
					c5.4,4.1-16.7,5.2-18.6,4.9c-4.8-0.1-9.6-0.7-14.2-2.1l-0.3-0.1c-0.5-0.1-5.1-1.4-4.2-2c6.2,0.6,12.4,1.7,18.7,1.4
					c3.2-0.1,6.4-0.3,9.5-0.8C-110.7,616.2-109.2,615.9-107.6,615.6z M38.7,610.5c-1-1.5,3.8,0.5,4.5,0.5c4,1,8.1,1.7,12.2,2
					c2.8,0.2,5.5,0.3,8.3,0.1c2-0.1,4.1-0.4,6.1-0.6l0.1,0c1.2,0,3.6,0.7,2.1,2.1c-2.3,1.8-5.7,1.3-8.5,1.5
					C55,616.2,46,614.9,38.7,610.5z M-120,599.7c2.4-0.4,15.8-0.6,14.5,3.5c-0.3,0.8-1.1,1-1.8,0.9c-8.3-2-17.2-3.1-25.5-0.3
					c-0.1,0-0.2-0.2-0.1-0.2C-128.8,601.6-124.5,600.2-120,599.7z M53.8,595.7c2.2-0.2,4.4-0.1,6.6,0.1l0.9,0.1
					c0.9,0.1,1.9,0.2,2.7,0.4l0.2,0.1c1.2,0.4,3.9,2.5,1.9,3.4c-2.2,0.7-4.1-0.1-6.2-0.7c-5.9-1.4-12.2-0.9-18,0.5l0.8,0.3l0,0
					c0.1,0,0.1,0,0.1,0.1c-0.6,0.5-1.4,0.3-1.8-0.3c-0.1-0.1,0-0.3,0.1-0.3C45,597.2,49.4,596.1,53.8,595.7z M-130.9,595.2
					c6.7-3,14.5-3.3,21.6-2.4l0.5,0.1c2.2,0.3,5.2,0.4,6.4,2.5c0.4,0.7,0,1.6-0.7,1.8c-2.1,0.8-4.6-0.8-6.6-1.3
					c-6-1.6-12.4-1.8-18.5-0.7c0,0.2-1,0.1-1.2,0.2C-129.6,595.3-131.4,595.9-130.9,595.2z M38,590.6c5.8-2.8,12.6-3.5,18.9-2.1
					l0.3,0.1c2.8,0.8,7.3,1.7,8.3,4.7c0.2,0.7-0.3,1.6-1,1.7c-2.4,0.5-4.5-1.3-6.7-2.1c-6.3-2.4-13.5-3-20.1-1.2
					c0,0.3-0.1,0.5-0.1,0.8c0.1-0.1,0.2,0.1,0.1,0.2C36.7,593.3,35.6,591.5,38,590.6z M-115.9,585.6c4.7-0.3,9.5,0.3,14.1,1.5
					l0.9,0.2c1.2,0.3,2.9,0.9,3,2.2c0.1,0.5-0.1,0.9-0.5,1.2c-1.6,1.2-5-1.3-7-1.6c-7.2-2.2-14.9-2.1-22.1-0.5l-0.2,0.1l0.2,1.2
					c0.2,0.6-1.4-0.8-0.8-1.5C-124.6,586.6-120.1,585.9-115.9,585.6z M42.5,583.3c3.8-0.7,7.7-0.8,11.5-0.5l0.5,0
					c2.3,0.2,9.7,0.5,8,4.4c-0.3,0.6-1.1,0.7-1.7,0.5c-1.9-0.9-3.9-1.3-5.9-1.6c-7.2-1-14.6-0.6-21.7,1.4c0.2,0.2-0.2,0.5-0.5,0.6
					c-0.7,0.1-0.7-0.8-0.4-1.2c0.4-0.6,1.1-0.8,1.7-1C36.7,584.7,39.6,583.9,42.5,583.3z M-101.3,561.8l-0.4-0.1
					c-7.2-1.7-23.3-4.8-25,5.2c-0.6,4.4,1.4,8.7,1.2,13c7.5-3.1,15.8-3,23.6-1c0.7-4.5,1.4-9,2.1-13.6l0.1-0.5
					C-99.4,563.3-99.2,562.1-101.3,561.8z M-117.4,563.6c1.6-1.4,4.2-1.3,5.8,0.1c1.4,0.3,2.4,1.8,2.4,3.1c2.2,3.8-0.4,9-4.6,10
					C-123,578.7-127.2,566-117.4,563.6z M43.4,557.5c7.8-1.4,10.6,8.5,4.2,12.5C38.6,574.5,32.6,560.3,43.4,557.5z M-113.6,535.7
					c0.1,0.8-0.3,1.3-0.7,1.8c-1.6,6.5-4,12.6-6.4,18.9c7.7-1.3,14.9-0.2,21.7,1.9c0.1-1.9,1-3.9,1.6-5.7c1.2-3.4,2.6-6.7,4.2-10
					l0.2-0.4c0.6-1.1,1.2-2.3,1.9-3.4C-98.5,537.7-106.1,536.8-113.6,535.7z M37.9,534.3l-0.2,0.9c-0.9,3.9-1.7,7.9-3,11.7l0,0.1
					c-0.2,1-0.6,5.4-0.9,2.3c-0.2,0.5-0.4,0.9-0.7,1.4l1.9-0.2c6.9-0.8,14.2-1.5,21,0.3c-0.7-5.5,0.3-10.7,1.9-15.9
					C51.2,534.7,44.6,534.8,37.9,534.3z M-88.2,541.1c-0.2,0.2-0.5,0.5-0.7,0.7c0.3-0.1,0.6-0.2,0.9-0.2
					C-88,541.4-88.1,541.3-88.2,541.1z M61.9,536.1l-0.2,0.5l0,0c0.1-0.1,0.2-0.1,0.4-0.2C62,536.3,61.9,536.2,61.9,536.1z
					 M-117.7,534.9c-0.1,0.3-0.1,0.6-0.3,0.9c0.1,0,0.2,0,0.3,0.1c0.1-0.3,0.3-0.6,0.4-0.8C-117.3,535-117.5,535-117.7,534.9z
					 M-59.8,211.8c-0.7,0.3-1.4,0.4-2.3,0.5c-7.6,0.3-15.2,1.2-22.7,2.7c0.4,6.1,2.3,11.9,4,17.7l0.4,1.3
					c5.9,20.7,11.1,42.4,10.1,64.1c0.1,0,0.1,0.1,0.2,0.1c-0.1,0.3-0.2,0.5-0.3,0.8l-0.1,0.2l-0.4,0.9c-0.2,0.5-0.4,1-0.6,1.5
					c-0.3,0.1-0.6,0.2-1,0.2c-1.7,11.5-0.1,24.3,7.7,33.3c-2.8-5.6-3.8-12-3.6-18.2l0-1c0-1.2,0.1-2.3,0.5-3.5c0-0.1,0.1,0,0.1,0
					c1.7,5.1,1.8,10.7,3.4,15.8l0.1,0.4c1.3,4,3.4,9.2,7.2,11.3c0.7,0.2,1.7,0,2.1,0.8l0,0.1l0,0c-1.7-5.4-2.7-11.1-3.1-16.8l0-0.4
					c-0.1-2-0.4-4.1,0.1-6c0.9,1.8,0.7,4.7,1.1,6.8l0,0.1c0.3,2.3,3.7,20,5.9,17.7c0.5-0.7,0.3-1.9,0.3-2.7l0-0.1c0-1.1,0-2.2,0-3.4
					c-0.2-6.6-1.3-13.4,0.7-19.8c0.3-1.1,2.2-1.3,2.4,0c0.9,5.2,1.7,10.3,2.6,15.5c0.6,3.2,0.6,6.7,2.5,9.4c0-5.9-0.3-11.9-0.6-17.8
					l-0.1-0.2c-0.2-0.7-0.4-1.7,0.1-2.4c0.2-1.4,2.2-1.2,2.4,0.2c0,0.3,0.1,0.6,0.1,0.9c0.7,0.8,1.3,1.7,2,2.4
					c5.2-10.6-11.7-28.8-14.1-40.7c-6.9-23.2-2.9-47.6-0.9-71.2C-55.6,211.9-57.7,211.9-59.8,211.8z M38.7,78.2
					c3.6,7.3,6.3,14.9,8.1,22.9c0.6,2.4-2.7,3.9-4,1.8l0-0.1c-1.6-2.7-4-5.1-7.1-6c-2.1,8.8-1.1,18,0,26.9
					c1.9,12.3,3.5,24.7,3.7,37.2l0,0.7c0.7,42.7,6.9,85.2,13.8,127c11,1.8,21,6.7,31.1,11.1c1.8,0.7,3.6,1.3,5.4,1.7
					c-5.1-47.4-24.4-91.8-30.4-139c-1.6-12.3-1.7-24.7,0.5-37c0-0.2,0.4-0.2,0.4,0.1c0.2,5,1.1,10,1.6,15c0.3-2.8,1.1-5.7,1.8-8.5
					c0.8-2.7,1.1-7,3.4-8.7l0.1-0.5l0,0c0.1-0.2,0.4-0.1,0.3,0.1c0,0.1,0,0.2-0.1,0.3c1.5,0.4,0.1,2.2-0.3,3
					c-2.4,6.4-3.1,13.3-4.7,19.9c2.4,20.6,6.6,40.9,11.8,60.9c4.8-1.3,9.6-2.5,14.4-3.7c-10.7-35-4.5-74.1-20.5-107.5
					C62.1,84.5,47.2,86,38.7,78.2z M-42.8,71.8c-2.2-0.1-4.6,1.1-6.8,1.5c-2.9,0.6-5.7,1-8.5,1.9c-14.3,3.9-28.2,14.7-30.8,30.2
					c-1.8,10.6,2.6,21,2.5,31.6c-0.5,10.5-3.9,20.6-5.3,31c-1.6,10.6-2.2,21.8-0.8,32.5c12.9-3.7,26.3-3.9,39.5-2
					c-1.1-16.2,0.3-32.5,1.1-48.7c0.6-10.4,1.6-20.8,1.2-31.3c0-0.2,0.4-0.3,0.4-0.1c4,21.3,1.6,42.9,1.2,64.3
					c-0.3,5.4,0.4,10.9,0.1,16.3c6,1.3,5.8,8.3,3.9,12.9c-0.3,1.1-1.4,0.9-2.3,0.8c-1,1-3.3-0.3-4.6-0.3c-1,26.6-7.3,55.1,5.5,80
					c5.4,0,10.5-1.8,15.7-2.9l0.3-0.1l0,0c0.8-1,1.1-2.6,1.2-3.8c0.7-20.5-1.5-41.1-0.2-61.6c1.6-22.8,6.7-45.4,4.4-68.3
					c-1.6-20.5-6.1-40.6-8.2-61l-0.1-1.1c-0.1-1.3-0.2-2.7-0.8-3.6c-3.6,3.3-6.7,7.2-8.8,11.7c-1.2,2.1-4.4,1.2-4.5-1.2
					c-0.5-4.3-0.5-8.6-0.1-12.9l0-0.4C-46.7,81.8-45.1,76.7-42.8,71.8z M91.7,219.6c-4.7,0.2-9.3,0.8-14,0.7l0.5,1.8
					c5.7,21.2,11.7,42.4,15.2,64.1l0.1-2c0.1-2,0.3-4.1,0.3-6.1C94.9,258.5,93.3,239,91.7,219.6z M-29.6,84.3c0,0.9,0.1,1.8,0.1,2.6
					c2.2,3.2,2,7.5,2.4,11.3c2.7,20.1,6.7,40.2,8,60.5c1.2,16.3-0.8,32.5-2.9,48.6c-2.6,18.4-2.3,37.1-1.7,55.6
					c9.9-9,23.9-10.5,36.4-13.3l0.6-0.1c9.6-2,19.1-4.8,27.3-10.4c-5.9-41.9-4.5-84.4-10.5-126.3c-0.2-3.3-0.2-6.6,0.1-9.9
					c-0.3-3.6-0.3-7.2-0.3-10.7c-2.6,10.6-11.4,20.8-22.9,20.5c-12.2-0.7-22.6-10.8-30.6-19.4C-25.8,90.5-28,87.5-29.6,84.3z
					 M78.1,219.6l-0.6,0l0,0.1l0,0c0.1,0,0.2,0,0.3-0.1L78.1,219.6z M93.2,205.3c-0.1,0-0.2,0-0.4,0c-0.2,0.6-0.7,1-1.3,1.2
					l-4.7,1.3c-3.9,1.1-7.8,2.1-11.7,3.1c0.7,2.5,1.3,5.1,2,7.6c5.3-1.7,11.2-1.3,16.6-2.4c-0.1-2.9-0.2-5.9-0.3-8.8
					c0-0.5,0.1-1.2-0.2-1.7C93.2,205.3,93.4,205.4,93.2,205.3z M-85.5,215.1l-0.1,0l0,0c0,0.1,0.1,0.3,0.1,0.4
					C-85.5,215.4-85.5,215.3-85.5,215.1z M-50.8,201.1c-10-1.5-20.2-2.3-30.3-1.3c-4.6,0.6-9.2,1.3-13.7,2.1
					c-1.6,2.4,0.2,8.3,2.1,10.1c0.6,0.2,1.6-0.2,2.1-0.3c4.2-0.9,8.4-1.7,12.7-2.3c0.1,0.2,0.3,0.3,0.5,0.2l1-0.1
					c5.9-0.5,11.8-0.9,17.6-0.6l0,0l0,0c4,0.3,7.9,0.9,11.8,1.4C-45.4,206.2-45.6,201.5-50.8,201.1z M22.1,67.6
					c0.4,1.3,0.9,2.6,1.4,3.8c0.6-0.2,1.4,0,1.9,0.3l0.2,0c0.5-0.1,1.1-0.3,1.3-0.3c7.2-1,6.6,8.6,6.6,13.5c0,2.4,0.1,4.9,0.2,7.3
					c2-0.7,4.8,0.6,6.6,1.7c-1.4-4.7-3.1-9.3-4.9-13.9l-0.3-0.9c-1.4-3.7-3.1-7.4-6.1-9.9C26.6,68.7,24.3,68.6,22.1,67.6z
					 M-29.8,65.2c-6.7-2.4-9.3,3-11.1,8.4c-2.2,6-2.8,12.6-2.4,19l0.2-0.3c2.4-3.3,6-8.7,10.4-7.8c0-2.5,0-5.2,0.5-7.8
					c-0.3-1.7-0.3-3.4-0.2-5c0.1-2.1,2.4-1.8,3.9-2.1c1.3-0.9,2.9-1.2,4.5-0.6c1.2-0.2,2.4-0.3,3.6-0.5c0.2-0.4,0.3-0.8,0.5-1.2
					C-23.2,66.6-26.5,65.9-29.8,65.2z"/>
			</g>
			<g id="Head" transform="translate(95.945717, 42.661805)">
				<g id="head_x2F_Gray-Short">
					<path id="_xD83C__xDFA8_-Background_1_" fill="#FFFFFF" d="M-108.7,176.7c-5.3,0-9.8-1.5-13.2-3.9c-4.3-1.5-9.4-3.9-12.5-6.3
						c-1.2,0.3-2.7-1-3.6-1.7c-5.8-4.3-10.4-10.7-11.7-17c-2.1,2.6-5,2.7-7.9,1.4c-6-3.4-5.7-10.5-3.6-15.8
						c-4.5-10.1-7.6-36.7-0.8-47.5c1.4-1.6,3.5-2.6,5-4.2c1.3-1.4,2.6-2.9,4.1-4.1c4.7-3.6,12.8-5.5,17.8-6.4
						c21.1-4.6,37.4,3.6,56.5,10.5c-1.1,2.7-2.6,5.3-4.4,7.6c4.8,1.8,2.6,5.8-1.1,7.8l-2.2-1.1c3.4,12.2,11.3,42.6,7.9,52.4
						C-81.1,163.8-92.9,176.9-108.7,176.7"/>
					<path id="_xD83D__xDD8D_-Ink_1_" fill="#E91B35" d="M-105.7,178.1c-6.8,0.7-15-0.9-19.5-6.5c-0.1-0.2-0.2-0.4-0.2-0.5
						c0-0.2,0.1-0.4,0.2-0.5c0.1-0.2,0.3-0.3,0.5-0.3c0.2,0,0.4,0,0.6,0.1l0.4,0.2c3.1,1.7,6.4,3.2,9.9,3.8
						c3.6,0.6,7.3,0.6,10.9-0.2c6.6-1.5,11.9-5.3,15.8-10.3c4.4-5.6,7-12.7,7.7-19.8c0.8-8.6-1.1-17.2-3-25.5
						c-2-8.8-4.3-17.5-6.9-26.1c-0.1-0.3-0.1-0.5-0.1-0.7c-0.8-0.3-1.6-0.2-2.4,0.1c-1.5,0.5-3,1.6-4.2,2.6
						c-0.4,0.3-0.9,0.6-1.2,0.9c-1.5,1-3.2,1.8-5.1,1.9c-1.9,0.1-3.8-0.5-5.6-1.2c-0.9-0.4-1.8-0.8-2.6-1.2c-2.5-1.1-5-2.2-7.7-3
						c-3.6-1-7.3-1.4-11.1-1.4c-6.7,0.1-13.4,1.8-17.5,7.4c-1.7,2.3-2.7,4.9-1.9,7.7c0.5,1.5,1.3,2.9,2.3,4.2l0.3,0.4
						c0.5,0.7,1,1.4,1.1,2.1c0.1,0.6,0,1.3-0.4,2c-0.3,0.5-0.6,0.9-1,1.3c-0.3,0.3-0.5,0.6-0.7,0.9c-0.5,0.6-0.8,1.3-1.2,2
						c-0.6,1.4-0.9,2.9-0.9,4.4c-0.1,1.8,0.2,3.6,0.4,5.4c0.2,1.3,0.4,2.5,0.4,3.8c0,0.2-0.1,0.4-0.2,0.5c-0.1,0.2-0.3,0.2-0.5,0.3
						c-0.1,0-0.1,0-0.2,0c0,0.1,0.1,0.2,0.1,0.4c-0.1-0.2-0.3-0.3-0.4-0.5c0,0,0,0,0,0c-0.1-0.1-0.3-0.2-0.3-0.4
						c-0.2-0.2-0.4-0.4-0.6-0.5c-1.1-0.8-2.5-1.4-3.8-1.4c-1.3,0-2.6,0.4-3.6,1.3c-2,1.8-2.5,4.8-2.6,7.4c0,2.6,0.6,5.8,2.9,7.4
						c0.9,0.7,2,1,3.2,1.1c0.9,0,1.8-0.3,2.7-0.6c0.3-0.1,0.5-0.2,0.8-0.3c0.3-0.1,0.6-0.1,0.8,0c0.3,0.1,0.5,0.3,0.7,0.5
						c0.2,0.2,0.3,0.5,0.3,0.8c0,0.3,0,0.6-0.1,0.9c0,0.1-0.1,0.1-0.1,0.2l0.5,0.8c1.9,3.2,3.9,6.3,6.5,9c1.5,1.6,3,3,4.8,4.3
						l0.2,0.2c0.1,0.1,0.3,0.2,0.5,0.4c0.5,0.4,1.1,1,1.7,1c0.2,0,0.3,0,0.4,0c0.3,0,0.6-0.1,0.9,0.1c0.2,0.1,0.4,0.2,0.7,0.6
						c0.2,0.2,0.2,0.5,0.2,0.8c0,0.3-0.1,0.6-0.2,0.8c-0.3,0.5-0.6,0.8-1,0.9c-0.4,0.2-0.9,0.2-1.4,0.1c-1.2-0.2-2.5-1.2-3.4-1.9
						l-0.2-0.1c-1.9-1.4-3.7-3-5.2-4.8c-2.7-3-5.1-6.6-6.3-10.5c-0.9,0.6-1.9,0.8-3.1,0.9c-1.6,0.1-3.4-0.4-4.7-1
						c-2.8-1.3-4.5-3.9-5.3-6.8c-0.9-3.4-0.6-7.2,0.6-10.3c0-0.1,0.1-0.2,0.1-0.3c-3.6-9.2-4.7-19.4-4.4-29.2
						c0.1-4.6,0.5-9.4,1.5-13.9c0.5-2,1.3-3.9,2.7-5.5c0.8-0.9,1.7-1.6,2.7-2.3c0.8-0.6,1.6-1.2,2.3-2l0.3-0.4
						c0.1-0.1,0.1-0.2,0.2-0.2c1.2-1.3,2.4-2.6,3.8-3.7c1.7-1.3,3.5-2.2,5.5-3c4.2-1.8,8.6-2.8,13.1-3.6c9.6-1.8,19.4-1.8,28.9,0.6
						c4.4,1.1,8.7,2.7,12.9,4.3c0.4,0.1,0.8,0.3,1.2,0.4c3.3,1.2,6.6,2.4,9.9,3.6c1.5,0.6,3.1,1.1,4.6,1.7c0.3,0.1,0.7,0.4,0.8,0.7
						c0.2,0.3,0.2,0.7,0.1,1.1c-0.9,2.4-2.1,4.6-3.6,6.7c0.5,0.3,0.9,0.8,1.3,1.3c0.4,0.7,0.7,1.5,0.7,2.3c0.1,2.8-2.5,4.8-4.7,6.1
						c-0.2,0.1-0.4,0.2-0.6,0.2c2.1,7.9,4.1,15.9,5.8,23.9l0.1,0.6c1.7,8.4,2.9,17,1.2,25.5c-1.4,7.3-4.7,14.4-9.9,19.8
						C-91.6,173.9-98.4,177.3-105.7,178.1z M-150.8,129.8c-0.9-2.8-1.4-5.9-1-8.8c0.2-1.8,0.8-3.5,1.6-5.1c0.5-0.9,1.1-1.8,1.8-2.6
						l0.2-0.3c0.1-0.1,0.2-0.3,0.3-0.4c0-0.1,0-0.2-0.1-0.3c-0.1-0.3-0.4-0.5-0.6-0.8c-0.1-0.2-0.3-0.3-0.4-0.5
						c-2-2.7-3.4-5.8-3-9.2c0.5-3.3,2.6-6.3,4.9-8.6c5.1-5.1,12.9-6.2,19.8-6c4,0.2,8,0.9,11.8,2.1c1.9,0.6,3.7,1.3,5.5,2.2l0.4,0.2
						c0.2,0.1,0.4,0.2,0.6,0.3c1.4,0.7,2.8,1.4,4.3,1.7c3,0.7,5-0.8,7.1-2.3c0.7-0.5,1.5-1.1,2.2-1.5l0.2-0.1
						c1.4-0.8,3.1-1.4,4.7-1.3c1.4,0,2.8,0.5,3.9,1.5c0.2,0.2,0.4,0.5,0.4,0.7c0.1,0.2,0.2,0.4,0.3,0.6c0.4,1.5,0.8,3,1.2,4.4
						l0.3-0.2c0.9-0.6,2-1.3,2.4-2.3c0.2-0.4,0.2-1.1-0.1-1.5c-0.1-0.2-0.2-0.3-0.3-0.4c-0.1-0.1-0.2-0.1-0.4-0.1
						c-0.4,0-0.7,0-1-0.1c-0.3-0.1-0.6-0.4-0.7-0.6c-0.2-0.3-0.2-0.6-0.2-0.9c0-0.3,0.2-0.6,0.4-0.9c1.6-1.9,3-3.9,4-6.1l-6.9-2.5
						c-2.4-0.9-4.9-1.8-7.3-2.7l-1.3-0.5c-4.4-1.6-8.9-3.2-13.5-4.3c-9.2-2.1-18.8-1.6-27.9,0.4l-0.6,0.1c-3.8,0.8-7.7,1.8-11.3,3.6
						c-1.7,0.9-3.4,1.9-4.8,3.2c-0.6,0.6-1.2,1.2-1.8,1.9c-0.8,0.9-1.6,1.8-2.5,2.5l-0.9,0.7c-1.3,1-2.5,2.1-3.2,3.7
						c-0.8,1.7-1.1,3.6-1.4,5.4c-0.8,4.6-1,9.3-1,13.9c0,7.8,1.2,15.5,2.7,23.1c1.2-1.7,2.9-3.1,5.1-3.3c1.4-0.2,2.8,0.1,4,0.7
						C-151.9,128.7-151.3,129.2-150.8,129.8L-150.8,129.8z M-153,139.1c-1.6-0.6-3.3-0.8-4.9-0.5c-0.2,0-0.3,0-0.5-0.1
						c-0.1-0.1-0.3-0.2-0.3-0.4c-0.1-0.2-0.1-0.3,0-0.5c0.1-0.1,0.2-0.3,0.3-0.4c1.8-0.9,3.8-1.2,5.8-1l0.2,0c1,0.2,2.5,0.5,3.5,1.1
						c0.8,0.5,1.5,1.2,1.6,2.1c0.1,0.5,0,0.9-0.3,1.3c-0.3,0.3-0.7,0.6-1.2,0.6c-0.9,0-1.4-0.4-2.1-0.9c-0.1-0.1-0.2-0.1-0.2-0.2
						C-151.6,139.7-152.3,139.3-153,139.1z"/>
				</g>
				<g id="face_x2F_Smile" transform="translate(37.760814, 44.083865)">
					<path id="_xD83D__xDD8D_-Ink_2_" d="M-142.2,113.1c-1.6-0.6-3-1.7-4.1-3.1c-0.4-0.5-0.5-1-0.4-1.5c0.1-0.5,0.4-1,0.8-1.3
						c0.4-0.3,1-0.5,1.5-0.4c0.4,0.1,0.9,0.3,1.2,0.8l0.1,0.1c0.6,0.8,1.4,1.5,2.3,2c0.9,0.4,1.9,0.6,2.9,0.5c2-0.2,3.3-1.3,4.7-2.7
						c0.2-0.2,0.4-0.4,0.5-0.6c0.1-0.2,0.3-0.3,0.4-0.3c0.2-0.1,0.4-0.1,0.6,0c0.2,0.1,0.4,0.2,0.5,0.4c0.1,0.2,0.2,0.4,0.2,0.6
						c-0.1,1.5-0.9,2.8-2,3.8c-1.2,1.2-2.9,2-4.4,2.2C-138.9,114-140.6,113.7-142.2,113.1L-142.2,113.1z M-136.4,90.2
						c1.8,1.1,4.5,3.6,2.6,6.3c-2.3,2.4-5.5-0.3-7.2-1.6c-1.5-1-3.2,1.5-1.8,2.6c11.6,8.6,16.4-7.1,7.2-8.6
						C-136.5,88.8-136.9,89.9-136.4,90.2z M-157.3,80.2c0.2-2.5,3.9-3,4.3-0.6c0.3,2.2-0.1,4.2-1,6.1c-0.9,1.9-3.3,1-3.5-0.7
						C-157.7,82.8-157.4,81.7-157.3,80.2z M-128.8,79.1c0.5-0.7,1.3-1.1,2.2-0.9c2.8,0.8,2,4.8,1,6.8c-0.5,1.1-2.3,1.3-3.1,0.4
						c-1.3-1.5-1.9-4.5-0.3-6C-128.9,79.3-128.8,79.2-128.8,79.1z M-154.1,69.5l0.4-0.1c1.4-0.2,3.1-0.5,4.1,0.6
						c0.5,0.6,0.7,1.7,0,2.2c-1.2,1-2.6,0.6-4,0.7c-1.2,0.1-2.4,0.3-3.5,0.6c-2.6,0.7-4.6,2.1-6.8,3.5c-0.3,0.2-0.6-0.2-0.4-0.4
						c1.3-2.5,3.7-4.5,6.1-5.7C-156.9,70.3-155.5,69.7-154.1,69.5z M-131.4,68.4l0.3,0.1c3.7,0.8,8.5,2.3,10.3,6
						c0.1,0.5,0,0.6-0.1,0.7l0,0c0,0.1-0.1,0.1-0.3,0.2c-0.1,0-0.1,0-0.2,0c-0.8-0.2-1.4-0.5-2.1-0.8l-0.7-0.3
						c-0.8-0.4-1.6-0.7-2.4-1c-1.8-0.6-3.6-1-5.4-1.2c-0.4,0-0.8-0.2-1.1-0.4c-0.3-0.2-0.5-0.5-0.6-0.9c-0.1-0.5-0.1-0.9,0.2-1.4
						c0.2-0.4,0.5-0.6,0.9-0.7C-132.2,68.3-131.8,68.3-131.4,68.4z"/>
				</g>
				<g id="facial-hair_x2F__x2A_-None" transform="translate(29.211196, 80.109389)">
				</g>
				<g id="accessories_x2F_Sunglasses-2" transform="translate(11.162002, 57.119417)">
					<path id="_xD83D__xDD8D_-Ink_3_" fill="#E91B35" d="M-82.3,59.1c-0.2,0-0.4-0.1-0.6-0.1c-0.2-0.1-0.3-0.2-0.5-0.2
						c-0.5-0.1-0.9-0.2-1.4-0.2c-6.8-1.5-22.5,0.6-23.1,6.4c-2.2,0.7-4,0.1-6.5,0.1c-1.9-7.9-34.8-6.8-36.4-2c0,0,0,0,0,0
						c-1.5-0.5-3.8-0.4-5.5-0.4c-3.7-0.1-7.4,0.3-11.1,1c-6.8,1.1-16.1,2.3-11.4,10.8c0,0,0,0,0,0l0,0c0.8,0.8,2.2,0.2,2.3-1
						c-1.6-4,2-4.5,4.8-5.7c6.9-2.5,13.9-2.8,21-2c0.5,0.6,1.3,1.2,2.2,1.5c4.8,0.8,2.3,4.3,5.3,4.8c-0.6,12.3,14.4,19,23.1,10.9
						c3.5-3.4,4.3-8.4,5.1-12.9c0.4-0.1,0.7-0.3,0.9-0.6c1-1,1.7-2,3.7-2.2c2-0.3,3.6,0.3,3.8,0.5c0.1,0.1,0.1,0.2,0.2,0.3
						c0.1,0.2,0.2,0.3,0.4,0.4c-2,12.2,7.5,20,17.1,13.6c4.2-3.9,5.1-9.9,5.2-15.3c0.6-0.3,0.9-1,0.7-1.8c-0.3-1.1,0.4-2.1,1.4-2.6
						C-80.5,61.7-80.8,59.4-82.3,59.1 M-123.5,64.9c-1.2-0.3-1.7,1.6-0.5,1.8c0.8,0.2,1.6,0.6,2.1,1.3l0.1,0.1c0.7,1,2.3,0.1,1.6-1
						C-121,66.1-122.2,65.2-123.5,64.9z M-88.6,63.8c-0.4-0.3-1.1-0.1-1.3,0.3c-0.3,0.5-0.1,1,0.3,1.3l0,0c0.4,0.3,0.7,0.7,0.8,1.2
						l0,0.1c0,1.2,1.9,1.2,1.9,0C-87,65.5-87.7,64.5-88.6,63.8z"/>
				</g>
			</g>
		</g>
	</g>
</g>
</svg>
